<?xml version="1.0" encoding="UTF-8" standalone="no"?>
<svg
   xmlns:dc="http://purl.org/dc/elements/1.1/"
   xmlns:cc="http://creativecommons.org/ns#"
   xmlns:rdf="http://www.w3.org/1999/02/22-rdf-syntax-ns#"
   xmlns:svg="http://www.w3.org/2000/svg"
   xmlns="http://www.w3.org/2000/svg"
   xmlns:sodipodi="http://sodipodi.sourceforge.net/DTD/sodipodi-0.dtd"
   xmlns:inkscape="http://www.inkscape.org/namespaces/inkscape"
   fill="#888888"
   viewBox="0 0 24 24"
   version="1.1"
   id="svg4487"
   sodipodi:docname="edit.svg"
   inkscape:version="0.92.1 r15371">
  <metadata
     id="metadata4493">
    <rdf:RDF>
      <cc:Work
         rdf:about="">
        <dc:format>image/svg+xml</dc:format>
        <dc:type
           rdf:resource="http://purl.org/dc/dcmitype/StillImage" />
        <dc:title></dc:title>
      </cc:Work>
    </rdf:RDF>
  </metadata>
  <defs
     id="defs4491" />
  <sodipodi:namedview
     pagecolor="#ffffff"
     bordercolor="#666666"
     borderopacity="1"
     objecttolerance="10"
     gridtolerance="10"
     guidetolerance="10"
     inkscape:pageopacity="0"
     inkscape:pageshadow="2"
     inkscape:window-width="1920"
     inkscape:window-height="1003"
     id="namedview4489"
     showgrid="false"
     inkscape:zoom="23.864854"
     inkscape:cx="-1.4631092"
     inkscape:cy="9.7037876"
     inkscape:window-x="-9"
     inkscape:window-y="-9"
     inkscape:window-maximized="1"
     inkscape:current-layer="g4494" />
  <g
     id="g4494"
     transform="matrix(0.01710339,0,0,0.01710339,3.4487352,3.4486993)"
     style="fill:#cccccc;fill-opacity:1">
    <path
       id="path4492"
       d="M 1009.8246,122.3 C 972.22458,84.499999 937.12458,42.099999 893.52458,10.999999 c -40,-8.3000002 -59.2,34.9 -86.7,55.1 46.4,53.900001 100.5,101.500001 150.4,152.500001 22.6,-26.9 76.20002,-54.5 52.60002,-96.3 z m -24.80002,203.6 c -31.7,31.8 -64.5,62.8 -95.1,95.8 -0.8,127.5 0.3,255 -0.4,382.6 -0.6,47 -41.8,88.7 -88.8,90.3 -193.4,0.8 -387,0.8 -580.4,0.1 -52.2,-1.4 -94,-51.4 -89.9,-102.7 -0.1,-184.6 -0.1,-369.1 0,-553.5 -4,-51.1 38,-100.3 89.6,-102.1 128.1,-1.7 256.3,0.1 384.3,-0.9 33.2,-30 63.9,-62.900001 95.7,-94.500001 -170.6,0 -341,-0.9 -511.6,0.5 -79.6,1.4 -150.999998,71.000001 -152.399998,151.000001 -0.2,215.2 -0.8,430.3 0.4,645.5 0.3,77.5 66.099998,144.7 142.399998,152 h 670.2 c 72.3,-12.7 134.3,-75.8 135.2,-150.9 2.2,-171 0.5,-342.2 0.8,-513.2 z m -51.1,-83.7 c -50.2,-50.5 -100.8,-100.7 -151.6,-150.700001 C 671.12458,201.9 559.72458,312 449.12458,423 c 50.1,50.4 100.4,100.6 151.3,150.3 111.3,-110.2 222.5,-220.7 333.5,-331.1 z m -567,412.4 c 68.1,-18.5 104.4,-30.2 172.5,-48.5 18.2,-5.8 30.3,-9.3 39.7,-13 -48.2,-45.9 -103.6,-102.5 -151.7,-148.8 -20.3,70.1 -40.3,140.2 -60.5,210.3 z"
       inkscape:connector-curvature="0"
       style="fill:#cccccc;fill-opacity:1" />
  </g>
</svg>
